<svg xmlns="http://www.w3.org/2000/svg" width="608" height="615" viewBox="0 0 608 615">
  <g id="img-background" transform="translate(-57 -1101)">
    <g id="hivan-arvizu-soyhivan-MAnhvw0nDDY-unsplash" transform="translate(583 1190) rotate(90)" fill="none" stroke="#1581ec" stroke-width="16" opacity="0.25">
      <path d="M0,0H476a50,50,0,0,1,50,50V526a0,0,0,0,1,0,0H50A50,50,0,0,1,0,476V0A0,0,0,0,1,0,0Z" stroke="none"/>
      <path d="M16,8H476a42,42,0,0,1,42,42V510a8,8,0,0,1-8,8H50A42,42,0,0,1,8,476V16A8,8,0,0,1,16,8Z" fill="none"/>
    </g>
    <g id="hivan-arvizu-soyhivan-MAnhvw0nDDY-unsplash-2" data-name="hivan-arvizu-soyhivan-MAnhvw0nDDY-unsplash" transform="translate(139 1101)" fill="rgba(21,129,236,0.1)" stroke="#9dde3e" stroke-width="16" opacity="0.5">
      <path d="M0,0H476a50,50,0,0,1,50,50V526a0,0,0,0,1,0,0H50A50,50,0,0,1,0,476V0A0,0,0,0,1,0,0Z" stroke="none"/>
      <path d="M16,8H476a42,42,0,0,1,42,42V510a8,8,0,0,1-8,8H50A42,42,0,0,1,8,476V16A8,8,0,0,1,16,8Z" fill="none"/>
    </g>
  </g>
</svg>
